<svg width="18" height="20" viewBox="0 0 18 20" fill="none" xmlns="http://www.w3.org/2000/svg">
<path d="M14.4791 12.986C13.5235 12.986 12.6564 13.3731 12.026 13.998L6.93622 11.2219C6.98599 10.9875 7.01253 10.7453 7.01253 10.4975C7.01253 10.1668 6.96498 9.84829 6.87871 9.54525L12.1974 6.16092C12.809 6.6918 13.6065 7.01364 14.478 7.01364C16.3991 7.01364 17.9618 5.45088 17.9618 3.52977C17.9618 1.60866 16.4002 0.0458984 14.4791 0.0458984C12.558 0.0458984 10.9952 1.60866 10.9952 3.52977C10.9952 3.86046 11.0428 4.17899 11.129 4.48203L5.81032 7.86636C5.19871 7.33548 4.40129 7.01364 3.52977 7.01364C1.60866 7.01364 0.0458984 8.5764 0.0458984 10.4975C0.0458984 12.4186 1.60866 13.9814 3.52977 13.9814C4.48535 13.9814 5.35244 13.5943 5.98286 12.9694L11.0726 15.7454C11.0229 15.9799 10.9963 16.2221 10.9963 16.4699C10.9963 18.391 12.5591 19.9537 14.4802 19.9537C16.4013 19.9537 17.9641 18.391 17.9641 16.4699C17.9641 14.5488 16.4002 12.986 14.4791 12.986ZM14.4791 2.03668C15.3019 2.03668 15.9722 2.70691 15.9722 3.52977C15.9722 4.35263 15.3019 5.02286 14.4791 5.02286C13.6562 5.02286 12.986 4.35263 12.986 3.52977C12.986 2.70691 13.6562 2.03668 14.4791 2.03668ZM3.52977 11.9906C2.70691 11.9906 2.03668 11.3204 2.03668 10.4975C2.03668 9.67465 2.70691 9.00442 3.52977 9.00442C4.35263 9.00442 5.02286 9.67465 5.02286 10.4975C5.02286 11.3204 4.35263 11.9906 3.52977 11.9906ZM14.4791 17.9629C13.6562 17.9629 12.986 17.2927 12.986 16.4699C12.986 15.647 13.6562 14.9768 14.4791 14.9768C15.3019 14.9768 15.9722 15.647 15.9722 16.4699C15.9722 17.2927 15.3019 17.9629 14.4791 17.9629Z" fill="white"/>
</svg>
